<?xml version="1.0" encoding="utf-8"?>
<!-- Generated by IcoMoon.io -->
<!DOCTYPE svg PUBLIC "-//W3C//DTD SVG 1.1//EN" "http://www.w3.org/Graphics/SVG/1.1/DTD/svg11.dtd">
<svg xmlns="http://www.w3.org/2000/svg">

<symbol viewBox="0 0 241 54" id='logo'>
<path class="cls-1" d="M237.919,101.4l28.619-.252-20.555-35.19-16.792,29.93-4.52.04,19.305-33.566-3.229-5.527L215,101.6l17.439-.153L246.08,77.136l10.81,18.508-16.649.146Zm44.757,5.589L251.367,53.225l0.37-.219,31.31,53.763Zm2.808-33.178V73.759a9.528,9.528,0,0,1,19.055-.052v0.052A9.528,9.528,0,0,1,285.484,73.811Zm14.051,0V73.759a4.672,4.672,0,0,0-4.549-4.912,4.582,4.582,0,0,0-4.473,4.859v0.052a4.667,4.667,0,0,0,4.524,4.912A4.586,4.586,0,0,0,299.535,73.811Zm10.089-9.147H314.2l7.278,9.615V64.664h4.852V82.854h-4.3l-7.556-9.979v9.979h-4.852V64.664Zm26.691,4.418h-5.307V64.664h15.517v4.418h-5.307V82.854h-4.9V69.081Zm14.99-4.418h4.929V82.854h-4.929V64.664Zm10.086,9.147V73.759a9.216,9.216,0,0,1,9.325-9.459,8.589,8.589,0,0,1,7.506,3.794l-3.69,2.936a4.7,4.7,0,0,0-3.866-2.131c-2.476,0-4.22,2.157-4.22,4.807v0.052c0,2.729,1.744,4.86,4.22,4.86a4.8,4.8,0,0,0,3.993-2.209l3.69,2.7a8.857,8.857,0,0,1-7.835,4.106A9.112,9.112,0,0,1,361.391,73.811Zm21.586-9.147h14.229v4.288H387.83v2.754h8.491v3.976H387.83v2.885h9.5v4.288H382.977V64.664Zm19.388,0h4.9V78.437h8.567v4.418h-13.47V64.664Zm18.1,0h4.9V78.437h8.568v4.418h-13.47V64.664Zm16.481,9.147V73.759A9.528,9.528,0,0,1,456,73.707v0.052A9.528,9.528,0,0,1,436.945,73.811Zm14.051,0V73.759a4.672,4.672,0,0,0-4.549-4.912,4.582,4.582,0,0,0-4.473,4.859v0.052a4.667,4.667,0,0,0,4.524,4.912A4.586,4.586,0,0,0,451,73.811ZM266.424,78.482V72.459l4.5,7.069h0.1l4.524-7.121V82.854h4.877V64.664h-5.181l-4.22,7.042-4.22-7.042h-5.181v5.574Zm20.07,14.225h0.678v6.061h-0.678V92.707Zm5.875,0h0.636l3.786,4.857V92.707h0.661v6.061h-0.541L293.03,93.8v4.97h-0.661V92.707Zm11.811,0.631h-2.018V92.707h4.722v0.631h-2.018v5.429H304.18V93.338Zm7.414-.631h4.345V93.33h-3.666V95.4h3.279v0.623h-3.279v2.121h3.708v0.624h-4.387V92.707Zm9.191,0h2.585a2.358,2.358,0,0,1,1.708.606,1.685,1.685,0,0,1,.463,1.194v0.017a1.767,1.767,0,0,1-1.63,1.766l1.845,2.477h-0.833l-1.742-2.355h-1.717v2.355h-0.679V92.707Zm2.524,3.091a1.335,1.335,0,0,0,1.545-1.246V94.533a1.279,1.279,0,0,0-1.536-1.2h-1.854V95.8h1.845Zm7.123-3.091h0.636l3.786,4.857V92.707h0.661v6.061h-0.541l-3.881-4.97v4.97h-0.661V92.707Zm12.446-.044h0.635l2.739,6.1h-0.73l-0.7-1.6h-3.271l-0.713,1.6h-0.695Zm1.674,3.888-1.365-3.092-1.374,3.092h2.739Zm7.14-3.213h-2.018V92.707H354.4v0.631h-2.018v5.429h-0.686V93.338Zm7.475-.631h0.677v6.061h-0.677V92.707Zm5.609,3.047V95.737a3.066,3.066,0,1,1,6.13-.018v0.018A3.066,3.066,0,1,1,364.776,95.754Zm5.426,0V95.737a2.4,2.4,0,0,0-2.37-2.5,2.372,2.372,0,0,0-2.352,2.485v0.018a2.4,2.4,0,0,0,2.37,2.5A2.372,2.372,0,0,0,370.2,95.754Zm5.577-3.047h0.636l3.786,4.857V92.707h0.661v6.061h-0.541L376.44,93.8v4.97h-0.661V92.707Zm12.446-.044h0.636l2.738,6.1H390.87l-0.7-1.6H386.9l-0.713,1.6h-0.695Zm1.675,3.888-1.366-3.092-1.373,3.092H389.9Zm6.324-3.844H396.9v5.428h3.382v0.633h-4.061V92.707Zm14.5,3.047V95.737a3.03,3.03,0,0,1,3.013-3.135,3.146,3.146,0,0,1,2.24.806l-0.437.519a2.549,2.549,0,0,0-1.828-.692,2.359,2.359,0,0,0-2.285,2.485v0.018a2.334,2.334,0,0,0,2.379,2.519,2.817,2.817,0,0,0,1.734-.606V96.143h-1.828V95.529h2.48v2.415a3.621,3.621,0,0,1-2.413.926A2.959,2.959,0,0,1,410.725,95.754Zm10.436-3.047h2.585a2.358,2.358,0,0,1,1.708.606,1.682,1.682,0,0,1,.464,1.194v0.017a1.767,1.767,0,0,1-1.631,1.766l1.845,2.477H425.3l-1.742-2.355H421.84v2.355h-0.679V92.707Zm2.524,3.091a1.336,1.336,0,0,0,1.546-1.246V94.533a1.28,1.28,0,0,0-1.537-1.2H421.84V95.8h1.845Zm6.857-.044V95.737a3.065,3.065,0,1,1,6.129-.018v0.018A3.065,3.065,0,1,1,430.542,95.754Zm5.425,0V95.737a2.4,2.4,0,0,0-2.369-2.5,2.372,2.372,0,0,0-2.353,2.485v0.018a2.4,2.4,0,0,0,2.37,2.5A2.372,2.372,0,0,0,435.967,95.754Zm5.484,0.476V92.707h0.678v3.48a1.777,1.777,0,0,0,1.837,2.043,1.736,1.736,0,0,0,1.812-2V92.707h0.678v3.472A2.507,2.507,0,1,1,441.451,96.231Zm10.05-3.523h2.25A1.961,1.961,0,0,1,456,94.629v0.017a2.078,2.078,0,0,1-2.361,1.983H452.18v2.139H451.5V92.707Zm2.164,3.3a1.429,1.429,0,0,0,1.648-1.334V94.655a1.362,1.362,0,0,0-1.614-1.316H452.18V96h1.485Z" transform="translate(-215 -53)" fill='#FFFFFF'/>
</symbol>


<g id="icomoon-ignore">
</g>

<symbol id='women-icon' viewBox="0 0 25 32"><path d="M12.584 3.412c-6.953 0-12.588 5.636-12.588 12.588s5.635 12.588 12.588 12.588c6.952 0 12.588-5.636 12.588-12.588s-5.636-12.588-12.588-12.588zM5.679 25.24c0.77-0.283 1.615-0.569 2.368-0.822 2.568-0.863 2.964-0.996 2.964-1.862v-2.026l-0.877-0.146c-0.063-0.011-1.54-0.255-2.532-0.255-0.512 0-0.803-0.013-1.084-0.197 0.722-1.581 1.469-4.054 1.752-6.010l0.054 0.019 0.078-1.386c0.123-2.221 1.96-3.961 4.183-3.961 2.222 0 4.059 1.74 4.183 3.961l0.091 1.381 0.040-0.014c0.283 1.956 1.030 4.429 1.752 6.010-0.28 0.184-0.572 0.197-1.083 0.197-1.007 0-2.434 0.318-2.593 0.354l-0.817 0.185v1.887c0 0.857 0.41 1.002 3.077 1.944 0.692 0.245 1.465 0.519 2.182 0.79-1.915 1.411-4.278 2.248-6.833 2.248-2.587 0-4.978-0.855-6.905-2.299zM20.349 24.528c-2.14-0.847-5.143-1.777-5.143-1.971 0-0.24 0-1.050 0-1.050s1.442-0.328 2.36-0.328 1.574-0.057 2.36-1.041c-0.984-1.737-2.098-5.647-2.098-7.646l-0.015 0.005c-0.153-2.76-2.432-4.952-5.23-4.952s-5.077 2.192-5.231 4.952l-0.014-0.005c0 2-1.115 5.909-2.098 7.646 0.787 0.983 1.442 1.041 2.36 1.041s2.36 0.24 2.36 0.24 0 0.897 0 1.137c0 0.197-3.071 1.081-5.206 1.911-2.28-2.11-3.711-5.124-3.711-8.468 0-6.363 5.176-11.539 11.539-11.539s11.539 5.177 11.539 11.539c0 3.375-1.456 6.416-3.774 8.528z" fill="#FFFFFF"></path></symbol>

<symbol id='radio-icon' viewBox="0 0 32 32">
<path d="M28.114 9.098c-0.011-0.004-0.019-0.012-0.031-0.015l-22.623-5.331c-0.287-0.066-0.574 0.11-0.641 0.397s0.11 0.574 0.397 0.641l18.159 4.279h-19.207c-0.825 0-1.495 0.669-1.495 1.495v16.204c0 0.825 0.67 1.494 1.495 1.494h23.667c0.826 0 1.495-0.669 1.495-1.494v-16.203c0-0.729-0.523-1.335-1.214-1.466zM28.262 26.768c0 0.236-0.192 0.428-0.428 0.428h-23.667c-0.236 0-0.429-0.192-0.429-0.428v-16.204c0-0.236 0.192-0.428 0.429-0.428h23.667c0.236 0 0.428 0.192 0.428 0.428v16.204z" fill="#FFFFFF"></path>
<path d="M12.264 17.599c-0.441 0-0.801 0.358-0.801 0.8 0 0.44 0.359 0.8 0.801 0.8 0.44 0 0.799-0.359 0.799-0.8 0-0.442-0.358-0.8-0.799-0.8z" fill="#FFFFFF"></path>
<path d="M6.404 18.398c0-0.442-0.359-0.8-0.8-0.8s-0.799 0.358-0.799 0.8c0 0.44 0.359 0.8 0.799 0.8s0.8-0.359 0.8-0.8z" fill="#FFFFFF"></path>
<path d="M18.933 17.599c-0.44 0-0.8 0.358-0.8 0.8 0 0.44 0.36 0.8 0.8 0.8 0.442 0 0.799-0.359 0.799-0.8 0-0.442-0.357-0.8-0.799-0.8z" fill="#FFFFFF"></path>
<path d="M9.335 19.154c-0.441 0-0.799 0.358-0.799 0.799s0.359 0.8 0.799 0.8c0.441 0 0.8-0.359 0.8-0.8s-0.359-0.799-0.8-0.799z" fill="#FFFFFF"></path>
<path d="M16 19.998c0-0.441-0.358-0.799-0.8-0.799-0.44 0-0.8 0.358-0.8 0.799s0.359 0.8 0.8 0.8c0.442-0 0.8-0.359 0.8-0.8z" fill="#FFFFFF"></path>
<path d="M9.335 16c-0.441 0-0.799 0.359-0.799 0.799 0 0.442 0.359 0.8 0.799 0.8s0.8-0.358 0.8-0.8c0-0.44-0.359-0.799-0.8-0.799z" fill="#FFFFFF"></path>
<path d="M15.2 17.599c0.442 0 0.8-0.358 0.8-0.8 0-0.44-0.358-0.799-0.8-0.799-0.44 0-0.8 0.359-0.8 0.799 0 0.442 0.359 0.8 0.8 0.8z" fill="#FFFFFF"></path>
<path d="M6.67 20.813c-0.441 0-0.8 0.358-0.8 0.8s0.359 0.8 0.8 0.8c0.44 0 0.8-0.358 0.8-0.8s-0.359-0.8-0.8-0.8z" fill="#FFFFFF"></path>
<path d="M17.866 20.813c-0.442 0-0.8 0.358-0.8 0.8s0.358 0.8 0.8 0.8c0.441 0 0.799-0.358 0.799-0.8s-0.358-0.8-0.799-0.8z" fill="#FFFFFF"></path>
<path d="M6.67 14.4c-0.441 0-0.8 0.359-0.8 0.8s0.359 0.799 0.8 0.799c0.44 0 0.8-0.358 0.8-0.799s-0.359-0.8-0.8-0.8z" fill="#FFFFFF"></path>
<path d="M17.866 16c0.441 0 0.799-0.358 0.799-0.799s-0.358-0.8-0.799-0.8c-0.442 0-0.8 0.359-0.8 0.8s0.358 0.799 0.8 0.799z" fill="#FFFFFF"></path>
<path d="M8.762 22.93c-0.44 0-0.8 0.358-0.8 0.799s0.36 0.8 0.8 0.8c0.443 0 0.8-0.359 0.8-0.8s-0.357-0.799-0.8-0.799z" fill="#FFFFFF"></path>
<path d="M15.713 22.93c-0.441 0-0.8 0.358-0.8 0.799s0.359 0.8 0.8 0.8c0.442 0 0.8-0.359 0.8-0.8s-0.358-0.799-0.8-0.799z" fill="#FFFFFF"></path>
<path d="M8.803 13.867c0.443 0 0.8-0.358 0.8-0.799s-0.357-0.8-0.8-0.8c-0.44 0-0.8 0.358-0.8 0.8 0 0.441 0.36 0.799 0.8 0.799z" fill="#FFFFFF"></path>
<path d="M15.713 12.268c-0.441 0-0.8 0.358-0.8 0.8 0 0.441 0.359 0.799 0.8 0.799s0.8-0.358 0.8-0.799c0-0.442-0.358-0.8-0.8-0.8z" fill="#FFFFFF"></path>
<path d="M12.264 20.813c-0.441 0-0.8 0.358-0.8 0.8 0 0.44 0.359 0.8 0.8 0.8s0.799-0.359 0.799-0.8c0-0.442-0.358-0.8-0.799-0.8z" fill="#FFFFFF"></path>
<path d="M12.264 23.996c-0.441 0-0.8 0.359-0.8 0.8s0.359 0.8 0.8 0.8c0.441 0 0.799-0.359 0.799-0.8s-0.358-0.8-0.799-0.8z" fill="#FFFFFF"></path>
<path d="M12.264 14.4c-0.441 0-0.8 0.359-0.8 0.8s0.359 0.799 0.8 0.799c0.441 0 0.799-0.358 0.799-0.799s-0.358-0.8-0.799-0.8z" fill="#FFFFFF"></path>
<path d="M12.264 11.202c-0.441 0-0.8 0.358-0.8 0.799s0.359 0.8 0.8 0.8c0.441 0 0.799-0.359 0.799-0.8s-0.358-0.799-0.799-0.799z" fill="#FFFFFF"></path>
<path d="M24.531 12.268c-0.883 0-1.6 0.716-1.6 1.599s0.717 1.599 1.6 1.599c0.882 0 1.598-0.716 1.598-1.599s-0.716-1.599-1.598-1.599zM24.531 14.399c-0.295 0-0.534-0.239-0.534-0.533s0.24-0.533 0.534-0.533c0.294 0 0.532 0.239 0.532 0.533s-0.238 0.533-0.532 0.533z" fill="#FFFFFF"></path>
<path d="M24.531 16.533c-0.883 0-1.6 0.716-1.6 1.599s0.717 1.599 1.6 1.599c0.882 0 1.598-0.716 1.598-1.599s-0.716-1.599-1.598-1.599zM24.531 18.665c-0.295 0-0.534-0.239-0.534-0.533s0.24-0.533 0.534-0.533c0.294 0 0.532 0.239 0.532 0.533s-0.238 0.533-0.532 0.533z" fill="#FFFFFF"></path>
</symbol>

<symbol id='culture' viewBox="0 0 32 32"><path  d="M26.995 12.046h4.258l-15.457-9.152-15.049 9.152h3.857v15.994h-2.132v1.066h26.656v-1.066h-2.133v-15.994zM4.553 10.98l11.25-6.842 11.556 6.842h-22.807zM5.67 28.040v-15.994h3.199v15.994h-3.199zM9.935 28.040v-15.994h3.199v15.994h-3.199zM14.2 28.040v-15.994h3.199v15.994h-3.199zM18.465 28.040v-15.994h3.199v15.994h-3.199zM22.73 28.040v-15.994h3.199v15.994h-3.199z" fill="#FFFFFF"></path></symbol>

<symbol id='coffee' viewBox="0 0 32 32">
<path d="M23.97 19.732h4.292v-8.53h-24.524v7.997c0 5.594 4.535 10.129 10.129 10.129 5.414 0 9.824-4.251 10.102-9.596zM23.997 12.268h3.199v6.397h-3.199v-6.398zM13.867 28.262c-4.997 0-9.063-4.066-9.063-9.063v-6.931h18.126v6.931c0 4.998-4.066 9.063-9.063 9.063z" fill="#FFFFFF"></path>
<path d="M3.738 30.394h20.259v-1.066h-20.259z" fill="#FFFFFF"></path>
<path d="M9.069 3.205h1.066v4.798h-1.066v-4.798z" fill="#FFFFFF"></path>
<path d="M17.599 3.205h1.066v4.798h-1.066v-4.798z" fill="#FFFFFF"></path>
<path d="M13.334 1.606h1.066v6.398h-1.066v-6.397z" fill="#FFFFFF"></path>
</symbol>

<symbol id='cash' viewBox="0 0 29 32">
<path d="M16.784 10.755c-1.737 0-3.147 1.409-3.147 3.147s1.41 3.148 3.147 3.148c1.739 0 3.147-1.409 3.147-3.148s-1.409-3.147-3.147-3.147zM16.784 16c-1.156 0-2.098-0.941-2.098-2.099s0.941-2.098 2.098-2.098c1.158 0 2.098 0.941 2.098 2.098s-0.941 2.099-2.098 2.099z" fill="#FFFFFF"></path>
<path d="M4.196 6.034v15.735h25.176v-15.735h-25.176zM28.324 9.583v11.137h-23.078v-13.637h23.078v2.5z" fill="#FFFFFF"></path>
<path d="M23.746 22.819h-20.599v-14.686h-1.049v15.735h25.177v-1.049h-1.049z" fill="#FFFFFF"></path>
<path d="M21.648 24.917h-20.599v-14.686h-1.049v15.735h25.177v-1.049h-1.049z" fill="#FFFFFF"></path>
<path d="M6.819 8.165h3.147v1.049h-3.147v-1.049z" fill="#FFFFFF"></path>
<path d="M6.819 18.623h3.147v1.049h-3.147v-1.049z" fill="#FFFFFF"></path>
<path d="M23.603 8.165h3.147v1.049h-3.147v-1.049z" fill="#FFFFFF"></path>
<path d="M23.603 18.623h3.147v1.049h-3.147v-1.049z" fill="#FFFFFF"></path>
</symbol>
</svg>